# xmcd
#
# Track frame offsets:
#	150
#	13965
#	24790
#	37245
#	46057
#	60075
#	70242
#	81942
#	94725
#	103895
#	115672
#	127785
#	137317
#	148962
#
# Disc length: 2146 seconds
#
# Revision: 0
# Processed by: cddbd v1.5PL3 Copyright (c) Steve Scherf et al.
# Submitted via: dBpowerAMP V4.0
#
DISCID=b408600e
DTITLE=Abdias - So Saudade
DYEAR=1900
DGENRE=
TTITLE0=Pra Não Morrer de Tristeza
TTITLE1=Nervços de Aço
TTITLE2=Cabelos Brancos
TTITLE3=Marina
TTITLE4=Brasa
TTITLE5=Apanhei-te Cavaquinho
TTITLE6=MInha Ex-Mulher
TTITLE7=Preferiu a Boemia
TTITLE8=Fraguei
TTITLE9=Escreve-me
TTITLE10=Saudade do Meu Xodo
TTITLE11=Pra Nao Me Matar de Dor
TTITLE12=Vida da Minha Vida
TTITLE13=Forrofiando
EXTD=
EXTT0=
EXTT1=
EXTT2=
EXTT3=
EXTT4=
EXTT5=
EXTT6=
EXTT7=
EXTT8=
EXTT9=
EXTT10=
EXTT11=
EXTT12=
EXTT13=
PLAYORDER=
